# xmcd
#
# Track frame offsets: 
#        182
#        23880
#        46205
#        64312
#        84045
#        102125
#        124150
#        144557
#        165555
#        190055
#        211757
#        232007
#
# Disc length: 3474 seconds
#
# Revision: 2
# Processed by: cddbd v1.5.2PL0 Copyright (c) Steve Scherf et al.
# Submitted via: ExactAudioCopyFreeDBPlugin 1.0
#
DISCID=990d900c
DTITLE=Various Artist - Smooth Grooves:  New Jack Ballads [Rhino]
DYEAR=1998
DGENRE=SMB
TTITLE0=Guy - Piece of My Love
TTITLE1=Ready for the World - Tonight
TTITLE2=Force M.D.'s - Tender Love
TTITLE3=Jeff Redd - Love High
TTITLE4=Al B. Sure! - Nite and Day
TTITLE5=Troop - All I Do is Think of You
TTITLE6=After 7 - Ready or Not
TTITLE7=Club Nouveau - Heavy on My Mind
TTITLE8=Chuckii Booker - Games
TTITLE9=Jesse Johnson's Revue - I Want My Girl
TTITLE10=Miki Howard - That's What Love Is (ft Gerald Levert)
TTITLE11=Kiara - The Best Of Me (extended 12'' mix)
EXTD=
EXTT0=
EXTT1=
EXTT2=
EXTT3=
EXTT4=
EXTT5=
EXTT6=
EXTT7=
EXTT8=
EXTT9=
EXTT10=
EXTT11=
PLAYORDER=
